<svg width="48" height="48" viewBox="0 0 48 48" fill="none" xmlns="http://www.w3.org/2000/svg">
<g clip-path="url(#clip0_1_7)">
<rect width="48" height="48" fill="#24282C"/>
<path fill-rule="evenodd" clip-rule="evenodd" d="M27.1577 21.5323H12.9391C11.1334 21.5323 9.66953 22.9962 9.66953 24.8019V30.9C9.66953 32.7057 11.1334 34.1695 12.9391 34.1695H27.1577C28.9635 34.1695 30.4273 32.7057 30.4273 30.9V24.8019C30.4273 22.9962 28.9635 21.5323 27.1577 21.5323ZM12.9391 18.541C9.48131 18.541 6.67822 21.3441 6.67822 24.8019V30.9C6.67822 34.3578 9.48132 37.1608 12.9391 37.1608H27.1577C30.6155 37.1608 33.4186 34.3578 33.4186 30.9V24.8019C33.4186 21.3441 30.6155 18.541 27.1577 18.541H12.9391Z" fill="#E4E4E4"/>
<g filter="url(#filter0_d_1_7)">
<path fill-rule="evenodd" clip-rule="evenodd" d="M35.0128 13.774H20.7941C18.9884 13.774 17.5246 15.2379 17.5246 17.0436V23.1417C17.5246 24.9474 18.9884 26.4112 20.7941 26.4112H35.0128C36.8185 26.4112 38.2823 24.9474 38.2823 23.1417V17.0436C38.2823 15.2379 36.8185 13.774 35.0128 13.774ZM20.7941 10.7827C17.3364 10.7827 14.5333 13.5858 14.5333 17.0436V23.1417C14.5333 26.5995 17.3364 29.4025 20.7941 29.4025H35.0128C38.4706 29.4025 41.2736 26.5995 41.2736 23.1417V17.0436C41.2736 13.5858 38.4706 10.7827 35.0128 10.7827H20.7941Z" fill="white"/>
</g>
</g>
<defs>
<filter id="filter0_d_1_7" x="13.3614" y="9.61084" width="29.0841" height="20.9636" filterUnits="userSpaceOnUse" color-interpolation-filters="sRGB">
<feFlood flood-opacity="0" result="BackgroundImageFix"/>
<feColorMatrix in="SourceAlpha" type="matrix" values="0 0 0 0 0 0 0 0 0 0 0 0 0 0 0 0 0 0 127 0" result="hardAlpha"/>
<feOffset/>
<feGaussianBlur stdDeviation="0.585938"/>
<feComposite in2="hardAlpha" operator="out"/>
<feColorMatrix type="matrix" values="0 0 0 0 0 0 0 0 0 0 0 0 0 0 0 0 0 0 0.5 0"/>
<feBlend mode="normal" in2="BackgroundImageFix" result="effect1_dropShadow_1_7"/>
<feBlend mode="normal" in="SourceGraphic" in2="effect1_dropShadow_1_7" result="shape"/>
</filter>
<clipPath id="clip0_1_7">
<rect width="48" height="48" rx="11.25" fill="white"/>
</clipPath>
</defs>
</svg>
